<?xml version="1.0" standalone="no"?>
<!DOCTYPE svg PUBLIC "-//W3C//DTD SVG 20010904//EN"
 "http://www.w3.org/TR/2001/REC-SVG-20010904/DTD/svg10.dtd">
<svg version="1.0" xmlns="http://www.w3.org/2000/svg"
 width="512.000000pt" height="512.000000pt" viewBox="0 0 512.000000 512.000000"
 preserveAspectRatio="xMidYMid meet">
<metadata>
Created by potrace 1.11, written by Peter Selinger 2001-2013
</metadata>
<g transform="translate(0.000000,512.000000) scale(0.100000,-0.100000)"
fill="#000000" stroke="none">
<path d="M0 2561 l0 -2440 63 4 c34 2 62 4 62 5 0 1 25 3 55 5 30 1 55 3 55 4
0 1 27 4 60 5 33 2 85 7 115 10 30 4 78 9 105 12 28 2 70 7 95 9 25 3 79 7
120 11 129 10 169 13 350 30 36 3 76 7 90 9 14 2 57 6 95 10 39 3 95 8 125 11
30 2 83 6 118 9 34 2 65 6 70 8 4 3 7 469 7 1036 l0 1031 30 -32 c17 -18 84
-96 149 -173 66 -77 124 -145 130 -150 6 -6 34 -37 62 -70 95 -113 120 -141
178 -205 22 -24 109 -126 157 -184 13 -16 31 -36 39 -45 18 -18 126 -144 156
-179 10 -13 30 -36 44 -51 14 -15 48 -53 75 -86 28 -32 57 -66 65 -74 8 -9 84
-97 169 -196 85 -99 162 -187 170 -196 9 -9 34 -37 56 -63 22 -27 53 -62 68
-80 15 -17 42 -48 60 -70 18 -21 49 -56 70 -78 20 -22 43 -48 50 -57 6 -10 30
-38 52 -63 22 -24 62 -70 90 -102 45 -53 52 -57 80 -51 16 3 41 8 55 11 14 3
33 7 42 10 9 3 25 6 35 8 10 2 47 12 83 21 36 10 79 19 95 22 17 2 73 15 125
28 52 13 106 26 120 29 14 3 86 19 160 36 74 18 146 34 160 36 14 3 39 9 55
14 17 5 57 14 90 21 71 15 51 10 160 37 50 11 101 23 115 26 14 2 66 14 115
26 50 12 101 24 115 26 40 7 60 15 60 23 0 4 -23 32 -51 62 -67 70 -316 332
-399 419 -36 37 -120 126 -187 196 -67 71 -150 158 -183 194 -34 36 -121 127
-194 203 -186 195 -363 382 -608 640 -48 50 -85 95 -82 99 3 4 23 13 44 19 22
7 40 17 40 22 0 6 3 8 6 4 4 -3 27 5 53 18 25 14 52 25 58 25 7 0 13 3 13 8 0
4 15 14 33 21 36 16 208 131 246 165 122 107 301 306 301 334 0 6 4 12 8 14
19 7 125 222 137 278 1 3 7 25 14 50 19 65 21 79 26 145 3 33 7 77 9 98 1 20
-1 37 -7 37 -5 0 -5 6 2 13 6 8 9 16 7 18 -2 2 -7 36 -11 74 -3 39 -8 79 -10
90 -38 175 -68 266 -123 370 -29 54 -72 118 -84 123 -5 2 -8 10 -8 17 0 13
-177 198 -230 240 -71 56 -221 148 -331 202 -107 53 -414 166 -436 161 -5 0
-15 2 -23 5 -22 9 -227 56 -270 63 -8 1 -37 5 -65 8 -27 4 -57 9 -65 11 -8 2
-40 7 -70 11 -30 3 -71 8 -90 11 -19 2 -57 6 -85 8 -27 2 -50 4 -50 5 0 9
-296 12 -1292 17 l-1163 5 0 -2441z m2005 1394 c33 -4 62 -9 65 -10 3 -2 25
-6 50 -10 24 -4 52 -11 61 -15 9 -5 31 -12 50 -15 50 -9 226 -97 294 -147 149
-110 219 -251 211 -423 -3 -76 -26 -176 -50 -220 -50 -92 -107 -169 -159 -214
-11 -9 -33 -28 -50 -43 -18 -15 -35 -28 -39 -28 -4 0 -13 -6 -20 -14 -52 -52
-285 -140 -400 -152 -80 -8 -196 -7 -273 2 -33 3 -72 8 -87 9 -16 1 -38 2 -50
3 l-23 2 0 635 c0 627 0 634 20 638 11 3 40 5 65 6 24 1 45 3 47 4 5 6 233 -1
288 -8z"/>
</g>
</svg>
