<?xml version="1.0" encoding="utf-8"?>
<!-- Generator: Adobe Illustrator 24.1.1, SVG Export Plug-In . SVG Version: 6.00 Build 0)  -->
<svg version="1.1" id="Capa_1" xmlns="http://www.w3.org/2000/svg" xmlns:xlink="http://www.w3.org/1999/xlink" x="0px" y="0px"
	 viewBox="0 0 512 512" style="enable-background:new 0 0 512 512;" xml:space="preserve">
<style type="text/css">
	.st0{fill:#FFFFFF;}
</style>
<g>
	<g>
		<path class="st0" d="M256,512c141.2,0,256-114.8,256-256S397.2,0,256,0S0,114.8,0,256S114.8,512,256,512z M202.7,341.3
			c0-2.8,1.1-5.5,3.1-7.5l77.8-77.8l-77.8-77.8c-2-2-3.1-4.7-3.1-7.5v-32c0-4.3,2.6-8.2,6.6-9.9c4-1.6,8.6-0.7,11.6,2.3l117.3,117.3
			c4.2,4.2,4.2,10.9,0,15.1L220.9,380.9c-2,2-4.8,3.1-7.5,3.1c-1.4,0-2.8-0.3-4.1-0.8c-4-1.6-6.6-5.5-6.6-9.9V341.3z"/>
	</g>
</g>
</svg>
