<?xml version="1.0" encoding="utf-8"?>
<!-- Generator: Adobe Illustrator 23.1.0, SVG Export Plug-In . SVG Version: 6.00 Build 0)  -->
<svg version="1.1" id="Capa_1" xmlns="http://www.w3.org/2000/svg" xmlns:xlink="http://www.w3.org/1999/xlink" x="0px" y="0px"
	 viewBox="0 0 27 23.9" style="enable-background:new 0 0 27 23.9;" xml:space="preserve">
<style type="text/css">
	.st0{fill:#FFFFFF;}
</style>
<g>
	<path class="st0" d="M3.7,23.3c0,0,0,0.6,0.6,0.6c0.7,0,6.8,0,6.8,0l0-5.6c0,0-0.1-0.9,0.8-0.9h2.8c1.1,0,1,0.9,1,0.9l0,5.6
		c0,0,5.8,0,6.7,0c0.7,0,0.7-0.8,0.7-0.8V12.9l-9.4-8.4l-10,8.4C3.7,12.9,3.7,23.3,3.7,23.3z"/>
	<path class="st0" d="M0,12.1c0,0,0.8,1.6,2.7,0l11-9.3L24.1,12c2.1,1.5,2.9,0,2.9,0L13.7,0L0,12.1z"/>
	<polygon class="st0" points="23.8,2.7 21.2,2.7 21.2,6 23.8,8.2 	"/>
</g>
</svg>
