<?xml version="1.0" encoding="utf-8"?>
<!-- Generator: Adobe Illustrator 24.1.1, SVG Export Plug-In . SVG Version: 6.00 Build 0)  -->
<svg version="1.1" id="Layer_1" focusable="false" xmlns="http://www.w3.org/2000/svg" xmlns:xlink="http://www.w3.org/1999/xlink"
	 x="0px" y="0px" viewBox="0 0 504 384.1" style="enable-background:new 0 0 504 384.1;" xml:space="preserve">
<style type="text/css">
	.st0{fill:#FFFFFF;}
</style>
<path class="st0" d="M497,209L329,377c-15,15-41,4.5-41-17v-96H152c-13.3,0-24-10.7-24-24v-96c0-13.3,10.7-24,24-24h136V24
	c0-21.4,25.9-32,41-17l168,168C506.3,184.4,506.3,199.6,497,209z M192,372v-40c0-6.6-5.4-12-12-12H96c-17.7,0-32-14.3-32-32V96
	c0-17.7,14.3-32,32-32h84c6.6,0,12-5.4,12-12V12c0-6.6-5.4-12-12-12H96C43,0,0,43,0,96v192c0,53,43,96,96,96h84
	C186.6,384,192,378.6,192,372z"/>
</svg>
