<svg id="Layer_1" data-name="Layer 1" xmlns="http://www.w3.org/2000/svg" viewBox="0 0 432.04 83.7"><defs><style>.cls-1{fill:#fff;}.cls-2{isolation:isolate;}</style></defs><path class="cls-1" d="M42.3,27.4A13.79,13.79,0,0,0,28.7,13.6H21.9V41h6.8A13.61,13.61,0,0,0,42.3,27.4M73.1,82.1H48.2L28.5,54.7H21.9V82H0V0H31.4C49.5,0,64.2,12.3,64.2,27.4c0,9.2-5.7,17.5-14.3,22.5L73.1,82.1"/><path class="cls-1" d="M97.8,32.3c-5.8,0-10.7,7.8-10.7,17.6S92,67.5,97.8,67.5s10.8-7.9,10.8-17.6-4.9-17.6-10.8-17.6m33.6,17.6A33.6,33.6,0,1,1,97.6,16.5h.1a33.4,33.4,0,0,1,33.7,33.4h0m51.4-32.1L157.6,43V17.8H135.7V82h21.9V56l26.3,26h27.5L178,48.6l27.7-27.7V59c0,12.7,7.6,24.4,26.8,24.4,9.1,0,17.5-5.2,21.5-9.8l9.9,8.5h4.7V17.8H246.7V59.4c-2.5,4.3-5.9,7-11.2,7s-7.9-3.2-7.9-13.4V17.8Z"/><g class="cls-2"><path class="cls-1" d="M324.94,16.3l-1.81,6.84H311.75l-.67,4.71h10.58l-.92,6.47H310.15l-1.51,10.79H300l4.08-28.81Z"/><path class="cls-1" d="M336.66,16.3l-3.07,21.75h10.29v7.06h-20.2l4.07-28.81Z"/><path class="cls-1" d="M368.45,16.3,374,45.11h-9.15l-1-5.12h-9.16l-2.39,5.12h-8.44L357.49,16.3Zm-7,8.86h-.21l-3.7,8.74h5.13Z"/><path class="cls-1" d="M399.4,17.77a6.25,6.25,0,0,1,2.94,5.63,8.6,8.6,0,0,1-.17,1.8h-8.06l0-.8a1.75,1.75,0,0,0-.77-1.51,3.79,3.79,0,0,0-2.34-.63,5.75,5.75,0,0,0-2.81.55,1.63,1.63,0,0,0-1,1.43,1.58,1.58,0,0,0,1.12,1.45,25.68,25.68,0,0,0,3.71,1.11,33.52,33.52,0,0,1,4.69,1.28A8.15,8.15,0,0,1,400,30.24a5.54,5.54,0,0,1,1.34,3.91,11,11,0,0,1-3.27,8.08q-3.27,3.3-11,3.3a14.56,14.56,0,0,1-7.93-2A6.48,6.48,0,0,1,376,37.68a16.53,16.53,0,0,1,.25-2.4h8.15a2.15,2.15,0,0,0-.17.93,2.3,2.3,0,0,0,.84,1.84,4.17,4.17,0,0,0,2.73.72q4.25,0,4.24-2a1.49,1.49,0,0,0-1.07-1.38,21.15,21.15,0,0,0-3.46-1A30,30,0,0,1,382.77,33a8.27,8.27,0,0,1-3.27-2.3,6.15,6.15,0,0,1-1.39-4.23,9.15,9.15,0,0,1,3.76-7.87q3.75-2.74,9.89-2.75A13.93,13.93,0,0,1,399.4,17.77Z"/><path class="cls-1" d="M432,16.3,428,45.11h-8.82l1.6-11.21h-6.81l-1.59,11.21h-8.86l4.07-28.81h8.82l-1.51,10.62h6.8l1.51-10.62Z"/></g><g class="cls-2"><path class="cls-1" d="M323.3,54.12a6,6,0,0,1,2.35,2.2,5.9,5.9,0,0,1,.84,3.11,7.27,7.27,0,0,1-1.66,5.12,8.67,8.67,0,0,1-4.13,2.52l-.05.17c3.06.76,4.58,2.66,4.58,5.71a9.39,9.39,0,0,1-1.13,4.44,9,9,0,0,1-3.22,3.42,8.81,8.81,0,0,1-4.8,1.3H300l4.08-28.81H319.9A7,7,0,0,1,323.3,54.12ZM309.78,70.48l-.68,5h5.34A2.44,2.44,0,0,0,316,74.8a2,2,0,0,0,.8-1.47l.09-1a1.76,1.76,0,0,0-.51-1.3,1.73,1.73,0,0,0-1.3-.5Zm1.55-11.05-.67,4.91h4.83a2.44,2.44,0,0,0,1.59-.63,2,2,0,0,0,.8-1.47l.09-1a1.73,1.73,0,0,0-1.81-1.81Z"/><path class="cls-1" d="M349.68,53.3l5.54,28.81h-9.16l-1-5.12H335.9l-2.39,5.12h-8.45L338.71,53.3Zm-7,8.86h-.21L338.8,70.9h5.12Z"/><path class="cls-1" d="M382.29,55.44c1.94,1.71,2.92,4.16,2.92,7.35A14.9,14.9,0,0,1,385,65.1h-8.27l.21-1.47a1.44,1.44,0,0,0,0-.34v-.37a3.3,3.3,0,0,0-1-2.54,3.71,3.71,0,0,0-2.65-1h-.21a4.54,4.54,0,0,0-3.29,1.18,4.87,4.87,0,0,0-1.49,3l-1.14,8.11a.66.66,0,0,0,0,.29v.29a3.5,3.5,0,0,0,1,2.59,3.56,3.56,0,0,0,2.62,1h.59c2.75,0,4.34-1.4,4.79-4.2l.21-1.39h7.9a14.54,14.54,0,0,1-4.39,9,13.14,13.14,0,0,1-9.18,3.23h-1.18a14.08,14.08,0,0,1-6.07-1.26,9.78,9.78,0,0,1-4.17-3.63A10.35,10.35,0,0,1,357.82,72c0-.31.07-1,.19-2s.33-2.5.61-4.49a14.49,14.49,0,0,1,2.56-6.6,14.17,14.17,0,0,1,5.25-4.43,15.58,15.58,0,0,1,7-1.57h1.17A11.27,11.27,0,0,1,382.29,55.44Z"/><path class="cls-1" d="M416.71,53.3,406.29,64.85l6.59,17.26H403l-3.53-10.42-3.91,4-.92,6.38h-8.57l4.07-28.81h8.57l-1.6,11.38L407,53.3Z"/></g></svg>