<?xml version="1.0" encoding="utf-8"?>
<!-- Generator: Adobe Illustrator 23.1.0, SVG Export Plug-In . SVG Version: 6.00 Build 0)  -->
<svg version="1.1" id="Layer_1" focusable="false" xmlns="http://www.w3.org/2000/svg" xmlns:xlink="http://www.w3.org/1999/xlink"
	 x="0px" y="0px" viewBox="0 0 640 512" style="enable-background:new 0 0 640 512;" xml:space="preserve">
<style type="text/css">
	.st0{fill:#FFFFFF;}
</style>
<path class="st0" d="M592,0H48C21.5,0,0,21.5,0,48v320c0,26.5,21.5,48,48,48h240v32H112c-8.8,0-16,7.2-16,16v32c0,8.8,7.2,16,16,16
	h416c8.8,0,16-7.2,16-16v-32c0-8.8-7.2-16-16-16H352v-32h240c26.5,0,48-21.5,48-48V48C640,21.5,618.5,0,592,0z M576,352H64V64h512
	V352z"/>
</svg>
